<svg id="svg" xmlns="http://www.w3.org/2000/svg" xmlns:xlink="http://www.w3.org/1999/xlink" width="400" height="320" viewBox="0, 0, 400,320"><g id="svgg"><path id="path0" d="M158.160 91.922 C 149.607 92.743,145.238 102.547,150.335 109.480 C 150.565 109.793,154.121 113.426,158.400 117.720 C 162.608 121.944,180.512 139.914,198.185 157.652 C 217.733 177.272,230.546 190.075,230.899 190.338 C 232.962 191.876,235.010 192.560,237.556 192.560 C 246.395 192.560,251.599 182.818,246.708 175.426 C 246.112 174.527,249.432 177.882,206.837 135.120 C 163.327 91.440,166.341 94.446,165.480 93.866 C 163.252 92.364,160.678 91.680,158.160 91.922 M239.957 92.243 C 238.042 92.462,236.148 93.233,234.544 94.446 C 234.113 94.773,228.416 100.415,218.322 110.513 L 202.763 126.077 207.805 131.138 C 210.578 133.922,214.079 137.441,215.586 138.957 L 218.326 141.714 233.648 126.397 C 248.846 111.203,249.709 110.321,250.436 109.240 C 252.222 106.582,252.721 102.899,251.714 99.800 C 250.100 94.833,245.150 91.651,239.957 92.243 M165.514 160.058 C 149.523 176.066,150.214 175.342,149.406 176.947 C 146.661 182.403,148.947 189.148,154.440 191.798 C 158.000 193.515,162.324 193.173,165.550 190.918 C 166.508 190.248,167.520 189.255,181.877 174.890 L 196.034 160.726 188.237 152.921 L 180.440 145.116 165.514 160.058 " stroke="none" fill="#000000" fill-rule="evenodd"></path></g></svg>